<svg width="195" height="195" viewBox="0 0 195 195" fill="none" xmlns="http://www.w3.org/2000/svg">
<path d="M82.993 89.933L75.279 108H71.161L78.933 90.397H69.015V86.917H82.993V89.933ZM85.2507 103.882V100.692L94.7337 87.12H99.4607V100.344H102.013V103.882H99.4607V108H95.4007V103.882H85.2507ZM95.6617 91.47L89.7167 100.344H95.6617V91.47ZM104.134 92.05C104.134 90.5807 104.559 89.4303 105.41 88.599C106.28 87.7677 107.391 87.352 108.745 87.352C110.098 87.352 111.2 87.7677 112.051 88.599C112.921 89.4303 113.356 90.5807 113.356 92.05C113.356 93.5387 112.921 94.6987 112.051 95.53C111.2 96.3613 110.098 96.777 108.745 96.777C107.391 96.777 106.28 96.3613 105.41 95.53C104.559 94.6987 104.134 93.5387 104.134 92.05ZM122.752 87.7L111.355 108H107.411L118.779 87.7H122.752ZM108.716 89.788C107.652 89.788 107.121 90.542 107.121 92.05C107.121 93.5773 107.652 94.341 108.716 94.341C109.238 94.341 109.644 94.1573 109.934 93.79C110.224 93.4033 110.369 92.8233 110.369 92.05C110.369 90.542 109.818 89.788 108.716 89.788ZM116.865 103.621C116.865 102.132 117.29 100.982 118.141 100.17C119.011 99.3387 120.122 98.923 121.476 98.923C122.829 98.923 123.921 99.3387 124.753 100.17C125.603 100.982 126.029 102.132 126.029 103.621C126.029 105.11 125.603 106.27 124.753 107.101C123.921 107.932 122.829 108.348 121.476 108.348C120.103 108.348 118.991 107.932 118.141 107.101C117.29 106.27 116.865 105.11 116.865 103.621ZM121.447 101.359C120.345 101.359 119.794 102.113 119.794 103.621C119.794 105.148 120.345 105.912 121.447 105.912C122.529 105.912 123.071 105.148 123.071 103.621C123.071 102.113 122.529 101.359 121.447 101.359Z" fill="#006B7A"/>
<circle cx="97.5" cy="97.5" r="85.5" stroke="#D9DDDE" stroke-width="24"/>
<path d="M183 97.5C183 80.3105 177.819 63.5201 168.132 49.3198C158.446 35.1194 144.704 24.1684 128.7 17.8958C112.696 11.6232 95.1723 10.3202 78.4165 14.1569C61.6606 17.9936 46.4503 26.7918 34.7702 39.4034C23.09 52.015 15.4825 67.8545 12.9402 84.8549C10.398 101.855 13.0391 119.227 20.5189 134.704C27.9986 150.181 39.9698 163.044 54.8702 171.614C69.7707 180.185 86.9086 184.065 104.048 182.749" stroke="#006B7A" stroke-width="24"/>
</svg>
