<svg width="451" height="340" viewBox="0 0 451 340" fill="none" xmlns="http://www.w3.org/2000/svg">
<path fill-rule="evenodd" clip-rule="evenodd" d="M168.021 332.487C199.912 343.209 234.918 340.567 267.624 332.668C313.449 321.601 358.347 299.093 386.146 261.045C395.587 248.124 403.066 232.806 402.256 216.828C401.256 197.098 387.81 178.947 389.763 159.288C391.309 143.724 402.252 130.638 405.856 115.419C411.221 92.7541 397.312 67.169 375.365 59.3304C362.076 54.5845 347.521 55.9123 333.41 56.0306C306.697 56.2546 279.952 51.8734 254.708 43.1385C240.211 38.1221 226.247 31.6988 211.97 26.0859C160.638 5.9043 101.884 -3.3706 50.7093 17.2051C29.3189 25.8055 8.72479 41.1307 2.45612 63.3025C-3.43531 84.1401 4.66847 106.746 17.4921 124.201C30.3158 141.656 47.5166 155.305 63.0201 170.433C78.5236 185.561 92.9048 203.212 97.5632 224.359C100.327 236.907 99.5005 250.002 101.86 262.632C108.035 295.683 136.131 321.765 168.021 332.487Z" fill="#EAEAEA"/>
<path d="M198.966 32.16C200.167 32.8623 201.012 34.0688 201.515 35.3661C202.934 39.0256 201.791 43.2068 199.92 46.6573C198.05 50.1078 195.48 53.1551 193.762 56.6838C192.205 59.8795 191.384 63.4303 191.378 66.9847C191.378 67.4712 190.719 67.726 190.276 67.5266C189.832 67.3272 189.576 66.8648 189.36 66.4293C184.835 57.3417 183.795 46.0372 188.729 37.1656C189.761 35.311 191.081 33.5444 192.905 32.4599C194.729 31.3754 197.134 31.0889 198.966 32.16Z" fill="white"/>
<path d="M157.593 60.2727C159.115 60.7649 160.387 61.8271 161.488 62.9877C166.873 68.6671 168.756 76.7203 170.43 84.3656C170.535 84.8438 170.137 85.6087 169.826 85.2302C166.845 81.5956 162.552 79.3425 158.81 76.4982C155.067 73.6539 151.611 69.659 151.625 64.9581C151.63 63.5219 152.018 62.0022 153.078 61.0331C154.259 59.9539 156.071 59.7805 157.593 60.2727Z" fill="white"/>
<path fill-rule="evenodd" clip-rule="evenodd" d="M163.802 24.6222C161.62 32.9514 165.619 41.5251 169.574 49.1732C169.962 49.9218 170.6 50.7958 171.421 50.6079C171.084 45.5836 172.339 40.5925 172.528 35.5605C172.717 30.5284 171.546 24.9769 167.554 21.908C166.826 21.3483 165.712 21.5795 165.036 22.202C164.361 22.8245 164.035 23.7338 163.802 24.6222L163.802 24.6222Z" fill="white"/>
<path fill-rule="evenodd" clip-rule="evenodd" d="M168.017 266.184C169.851 268.493 169.902 271.79 169.125 274.635C168.137 278.249 165.894 281.481 162.932 283.769C162.193 284.339 177.708 294.683 164.731 295.27C151.753 295.857 158.725 286.2 157.738 286.515C155.895 287.104 153.777 287.496 152.655 289.072C151.532 290.648 152.925 293.62 154.699 292.847C155.871 292.336 156.944 294.151 156.324 295.27C155.704 296.389 154.299 296.769 153.034 296.962C150.178 297.398 147.116 297.392 144.572 296.023C142.028 294.654 140.224 291.603 141.05 288.835C141.481 287.389 140.058 285.932 138.565 285.717C137.071 285.501 135.601 286.129 134.205 286.7C117.203 293.658 97.5786 293.96 80.3706 287.531C63.1625 281.101 48.5443 268.004 40.2703 251.603C38.2437 247.586 36.5503 243.329 33.6911 239.855C29.4087 234.651 22.5789 231.652 15.8499 232.019C13.5637 232.144 12.3383 228.951 13.387 226.916C14.4356 224.88 16.7209 223.857 18.8458 223.005C27.3795 219.58 36.1744 216.462 45.3388 215.712C66.0521 214.015 87.0789 225.607 97.3497 243.674C101.874 251.632 104.467 260.649 109.667 268.183C114.867 275.718 123.989 281.76 132.841 279.426C133.625 279.219 133.702 278.157 133.672 277.347C133.409 270.201 138.363 263.178 145.184 261.03C144.611 261.579 146.77 260.612 150.277 258.94C151.659 258.282 137.226 254.383 125.055 247.814C112.417 240.994 115.853 228.183 121.648 218.26C122.811 216.268 96.9667 198.732 101.811 194.396C108.692 188.237 129.526 207.472 131.005 206.047C131.849 205.233 132.495 203.752 132.841 203.602C135.902 202.274 138.325 199.3 141.05 198.323C142.982 197.63 145.3 198.85 147.071 198.323C149.113 197.716 133.134 184.466 137.857 180.324C142.58 176.182 156.872 196.044 158.684 195.837C199.502 191.174 180.197 245.221 180.949 246.014C183.485 248.687 164.518 261.778 168.017 266.184Z" fill="white"/>
<path fill-rule="evenodd" clip-rule="evenodd" d="M155.124 237.96C157.542 237.789 158.767 235.691 157.86 233.273C156.954 230.856 154.259 229.034 151.841 229.204C149.423 229.375 148.198 231.473 149.105 233.891C150.011 236.308 152.706 238.13 155.124 237.96Z" fill="#1F1E1A"/>
<path fill-rule="evenodd" clip-rule="evenodd" d="M183.448 221.076C185.226 220.955 186.127 219.46 185.46 217.737C184.794 216.014 182.811 214.716 181.033 214.838C179.255 214.959 178.354 216.454 179.021 218.177C179.687 219.9 181.67 221.198 183.448 221.076Z" fill="#1F1E1A"/>
<ellipse cx="199.644" cy="240.234" rx="27.0595" ry="26.8055" fill="white"/>
<path d="M288.687 252.355C285.815 253.966 281.627 255.618 279.77 252.898C278.905 251.629 279.082 249.948 279.294 248.427C281.101 235.449 284.785 220.594 286.593 207.616C290.274 198.965 302.907 152.027 308.122 148.845C308.669 148.512 306.038 144.433 305.765 137.237C305.701 135.566 283.202 125.992 277.527 115.241C275.117 110.674 271.342 96.5064 272.859 90.7548C274.859 83.17 282.81 84.4132 282.995 84.0383C283.38 83.2595 304.833 84.5071 311.59 94.3713C317.045 102.334 312.7 120.466 312.82 120.434C314.422 120.008 314.531 146.991 316.126 147.291C335.574 150.952 353.775 204.411 354.545 204.017C359.427 209.828 364.309 215.638 369.191 221.449C372.281 225.127 375.562 229.969 373.57 234.339C372.54 236.598 370.311 238.053 368.089 239.16C348.403 248.968 322.44 242.099 301.101 247.425C296.769 248.507 292.582 250.169 288.687 252.355Z" fill="white"/>
<ellipse cx="302.235" cy="110.081" rx="4.6767" ry="4.38886" fill="#1F1E1A"/>
<path fill-rule="evenodd" clip-rule="evenodd" d="M421.776 188.476C419.793 191.287 417.372 193.926 414.237 195.343C411.102 196.76 407.136 196.727 404.471 194.55C402.331 200.952 393.928 204.341 387.945 201.215C387.246 206.455 383.02 211.037 377.854 212.158C372.689 213.278 366.944 210.858 364.137 206.38C361.033 201.428 350.708 204.214 349.49 198.499C348.836 201.772 345.81 204.419 342.478 204.629C339.146 204.839 335.811 202.595 334.751 199.429C331.127 201.124 326.633 199.333 324.028 196.296C321.422 193.259 320.283 189.263 319.288 185.388C311.615 155.521 308.215 124.616 308.369 93.7795C307.603 97.5239 302.387 98.85 299.064 96.9627C295.74 95.0753 294.071 91.2323 293.095 87.537C292.306 84.549 288.437 83.5188 285.416 84.1685C282.395 84.8182 279.673 86.5615 276.62 87.0442C270.708 87.9791 264.748 83.5849 262.888 77.8957C261.028 72.2064 262.77 65.7593 266.378 60.9832C269.985 56.207 275.244 52.9171 280.734 50.5327C287.817 47.4564 295.48 45.7204 303.197 45.4434C305.074 45.376 307.338 45.1676 308.172 43.4856C312.307 45.3995 317.002 45.5307 321.516 46.1465C332.08 47.5875 342.236 51.9047 350.604 58.5107C362.166 67.6378 370.04 80.7304 381.373 90.1396C400.076 105.668 427.289 110.499 441.756 130.035C445.973 135.729 448.822 142.429 449.999 149.417C451.103 155.975 450.572 163.23 446.473 168.467C442.373 173.704 433.943 175.782 428.871 171.481C427.783 177.572 425.342 183.419 421.776 188.476Z" fill="white"/>
<path fill-rule="evenodd" clip-rule="evenodd" d="M310.48 166.036C311.017 163.499 311.385 160.759 310.331 158.39C309.277 156.02 306.286 154.346 304.001 155.574C296.018 159.861 291.243 168.29 287.463 176.526C283.683 184.761 280.285 193.515 273.745 199.787C268.318 204.992 260.918 208.088 253.402 208.298C252.649 208.73 253.228 209.993 254.064 210.227C254.9 210.462 255.8 210.169 256.656 210.314C259.02 210.713 259.526 214.26 257.984 216.095C256.442 217.93 253.876 218.45 251.514 218.858C249.955 219.127 250.608 221.853 252.165 222.137C253.721 222.42 255.152 221.346 256.513 220.54C257.874 219.734 259.813 219.232 260.886 220.394C258.867 221.405 257.475 223.563 257.387 225.819C259.935 223.154 263.606 221.599 267.293 221.622C266.307 222.843 265.321 224.064 264.334 225.285C268.451 224.426 271.862 220.861 272.54 216.711C273.174 212.828 277.103 210.553 280.46 208.501C295.664 199.204 306.786 183.471 310.48 166.036Z" fill="white"/>
<path fill-rule="evenodd" clip-rule="evenodd" d="M275.351 288.846C274.487 288.435 273.206 289.489 273.809 290.232C275.035 291.743 275.844 293.589 276.124 295.515C277.312 294.564 277.082 292.726 276.738 291.242C276.523 290.31 276.215 289.258 275.351 288.846ZM279.322 296.501L280.237 296.481C281.888 296.451 283.567 296.432 285.797 296.416L294.326 296.359C295.317 296.35 296.215 296.338 297.157 296.323C297.947 296.311 298.598 296.941 298.61 297.731C298.623 298.521 297.992 299.171 297.202 299.184L293.85 299.225L283.594 299.296C281.447 299.318 279.766 299.347 277.784 299.396C276.994 299.415 276.338 298.791 276.319 298.001C276.3 297.211 276.924 296.555 277.714 296.536L278.697 296.514C278.169 294.423 278.112 292.213 278.535 290.097C280.482 291.518 280.787 294.639 279.322 296.501ZM215.03 292.842C215.3 292.249 215.627 291.637 216.188 291.306C216.75 290.975 217.607 291.067 217.896 291.651C216.243 294.009 215.25 296.824 215.058 299.697C214.568 300.004 213.88 299.649 213.636 299.124C213.393 298.6 213.471 297.988 213.579 297.42C213.879 295.844 214.367 294.303 215.03 292.842ZM116.916 300.665C123.178 300.329 128.997 300.017 132.137 299.967C132.137 299.967 141.048 297.639 134.375 297.711L132.077 297.742C124.738 297.859 91.0691 299.785 91.7514 301.251C92.0982 301.996 105.274 301.289 116.916 300.665ZM265.666 298.382C265.645 297.592 264.988 296.969 264.198 296.99C257.973 297.154 252.089 297.295 244.766 297.454L220.645 297.945C219.855 297.961 219.227 298.614 219.243 299.404C219.258 300.193 219.911 300.821 220.701 300.806C234.323 300.537 243.542 300.348 251.495 300.165L264.274 299.85C265.063 299.829 265.687 299.172 265.666 298.382ZM411.19 294.531C392.439 293.127 389.871 293.57 389.871 293.57C379.233 293.57 370.235 293.816 354.054 294.485L343.705 294.925C333.945 295.341 328.441 295.557 323.084 295.712L318.581 295.83C317.791 295.848 317.166 296.504 317.184 297.293C317.203 298.083 317.858 298.708 318.648 298.69C324.256 298.557 328.867 298.403 336.597 298.087L354.71 297.322C369.061 296.731 377.708 296.479 387.016 296.438L390.502 296.432C393.986 296.438 397.214 296.473 400.063 296.503C407.58 296.583 412.467 296.636 412.51 296.064C412.569 295.277 411.978 294.59 411.19 294.531ZM185.376 296.389L181.722 305.697C179.768 302.392 181.695 297.482 185.376 296.389ZM189.249 303.517C189.135 302.907 188.229 302.504 187.881 303.018L184.53 307.966C183.826 309.005 183.358 310.817 184.562 311.176L188.645 305.224C188.996 304.713 189.364 304.127 189.249 303.517ZM163.218 302.932C163.514 302.5 163.88 302.034 164.401 301.974C164.922 301.915 165.444 302.608 165.062 302.967L162.851 308.721C161.958 308.114 161.645 306.896 161.83 305.831C162.015 304.767 162.607 303.823 163.218 302.932ZM148.329 305.354C148.268 305.709 148.407 306.067 148.554 306.396C149.111 307.643 149.829 308.817 150.684 309.881C151.493 309.19 151.536 307.899 151.073 306.942C150.61 305.984 149.758 305.282 148.933 304.611C148.622 304.733 148.385 305.025 148.329 305.354ZM170.801 308.95C171.375 310.095 171.204 311.573 170.383 312.557C169.372 311.3 168.814 309.686 168.835 308.073C168.841 307.603 168.95 307.051 169.376 306.853C170.262 306.442 170.757 307.904 170.642 308.873L170.801 308.95ZM177.242 300.817C177.399 300.322 177.584 299.787 178.02 299.505C178.456 299.222 179.201 299.412 179.242 299.93C178.803 301.839 178.374 303.75 177.955 305.664C177.464 306.129 176.579 305.714 176.346 305.08C176.113 304.445 176.316 303.742 176.52 303.098L177.242 300.817Z" fill="#00160A"/>
<path fill-rule="evenodd" clip-rule="evenodd" d="M97.5377 193.547L99.6363 195.375L96.9747 196.876C102.279 197.808 106.8 201.277 110.504 205.187C116.498 211.515 120.947 219.297 123.36 227.673C124.866 222.505 122.03 217.121 118.897 212.742C114.193 206.167 108.574 200.247 102.251 195.207C110.641 193.188 118.425 199.788 124.541 205.875C125.644 206.973 126.84 208.363 126.505 209.883C126.447 210.143 126.353 210.42 126.257 210.698L126.257 210.699C125.978 211.517 125.694 212.347 126.34 212.786C130.488 208.08 135.784 204.393 141.637 202.136C138.627 202.066 135.602 202.992 133.146 204.735C136.787 200.534 142.424 198.144 147.974 198.449C146.309 193.278 143.561 188.459 139.959 184.393C142.041 182.962 144.778 184.797 146.536 186.61C149.622 189.791 152.446 193.226 154.971 196.868C168.052 196.624 180.764 205.737 184.732 218.204C186.245 217.545 185.873 215.3 185.143 213.82C179.988 203.367 169.227 195.893 157.631 194.713C155.046 194.45 153.64 192.153 152.199 189.797C150.959 187.771 149.694 185.703 147.629 184.848C143.163 182.998 139.146 180.073 136.015 176.39C135.851 177.905 136.593 179.484 137.865 180.324L133.338 179.363C133.717 180.417 134.579 181.286 135.631 181.673L133.097 182.537C138.758 184.748 143.208 189.834 144.65 195.738L134.346 201.342C136.08 198.961 138.146 196.822 140.465 195.006C137.201 195.023 134.728 197.833 132.716 200.403C133.447 198.16 134.298 195.955 135.264 193.803C131.422 197.242 129.102 202.325 129.02 207.481C120.73 198.58 110.134 191.846 98.5556 188.12C100.548 189.476 102.522 190.86 104.475 192.271C102.239 191.291 99.7654 190.857 97.3287 191.016L102.064 193.426L97.5377 193.547ZM154.025 260.637L169.561 252.094C172.4 250.533 175.774 248.936 178.738 250.247C175.384 254.577 171.421 258.434 167.003 261.67C166.956 263.173 169.409 262.613 170.471 261.548L183.537 248.443C182.446 248.022 181.185 248.059 180.121 248.545L178.585 246.313C170.229 249.563 162.175 253.591 154.563 258.329C151.771 260.067 148.134 258.696 145.257 257.104C137.923 253.043 131.33 247.649 125.897 241.265C121.954 236.632 118.461 230.721 119.759 224.777L119.776 224.7C120.162 222.936 120.67 220.612 119.071 219.812C116.83 224.139 117.089 229.455 118.884 233.986C120.679 238.516 123.865 242.361 127.337 245.78C135.151 253.474 144.686 259.409 155.039 263.024C155.984 263.354 157.444 263.37 157.551 262.374C156.48 261.609 155.284 261.02 154.025 260.637ZM169.231 210.837C169.839 210.769 170.5 210.776 171.005 211.122C171.51 211.468 171.739 212.262 171.318 212.707C169.318 214.813 169.939 218.77 172.488 220.163C172.288 219.076 172.654 217.817 173.608 217.259C174.563 216.701 176.056 217.21 176.225 218.303C174.66 218.534 173.592 220.429 174.203 221.887C174.747 223.184 174.264 224.83 173.107 225.629C171.95 226.428 170.24 226.295 169.22 225.327C168.839 224.965 168.506 224.49 168.176 224.02C167.47 223.012 166.782 222.03 165.676 222.255C165.523 222.286 165.365 222.342 165.207 222.398C164.823 222.533 164.441 222.667 164.13 222.443C163.826 222.223 163.807 221.784 163.818 221.409C163.835 220.844 163.862 220.246 164.173 219.775C164.485 219.304 165.191 219.047 165.631 219.401C165.785 219.526 165.882 219.702 165.979 219.878C166.017 219.945 166.054 220.013 166.095 220.078C166.861 221.298 169.038 221.123 169.599 219.795C169.243 217.694 166.722 216.267 164.737 217.043C163.85 217.39 162.873 216.449 162.862 215.498C162.851 214.546 163.494 213.712 164.205 213.078C165.596 211.838 167.378 211.043 169.231 210.837ZM172.7 221.504C171.909 221.491 171.05 221.497 170.42 221.977C169.791 222.457 169.648 223.602 170.349 223.97C170.605 224.105 170.911 224.106 171.199 224.081C171.856 224.023 172.544 223.815 172.957 223.302C173.37 222.788 173.363 221.912 172.81 221.555L172.7 221.504ZM211.616 221.256C213.662 219.084 217.664 219.289 219.477 221.659C220.224 222.636 222.019 222.087 222.371 220.909C222.724 219.73 221.908 218.442 220.804 217.899C219.701 217.356 218.402 217.402 217.186 217.589C216.47 217.7 215.732 217.848 214.985 217.999C211.857 218.629 208.597 219.286 206.353 217.242C203.982 215.083 200.542 214.423 197.352 214.762C194.163 215.1 191.144 216.324 188.175 217.536L181.23 220.369C178.997 221.28 176.552 222.392 175.613 224.615C174.675 226.837 176.727 230.091 178.965 229.191C187.47 225.774 197.534 228.905 204.481 234.885C211.428 240.864 215.805 249.249 219.509 257.634C220.043 258.841 221.957 258.747 222.84 257.766C223.723 256.784 223.857 255.361 223.948 254.044L225.004 238.681C225.147 236.604 225.276 234.436 224.462 232.519C223.566 230.407 221.666 228.92 219.841 227.529L211.616 221.256ZM204.935 232.897C197.312 226.836 186.711 223.958 177.538 227.231C176.831 224.758 179.738 222.892 182.138 221.964L190.898 218.573C193.412 217.6 196 216.613 198.695 216.626C203.867 216.653 207.951 220.154 212.011 223.633L212.011 223.633C213.384 224.81 214.753 225.984 216.161 227.02C216.555 227.31 216.96 227.595 217.365 227.88L217.366 227.881L217.366 227.881L217.366 227.881L217.367 227.881L217.367 227.882L217.367 227.882L217.367 227.882C219.283 229.231 221.228 230.6 222.266 232.665C223.29 234.704 223.251 237.094 223.157 239.374C222.929 244.937 222.509 250.491 221.901 256.026C221.837 256.606 221.264 257.378 220.879 256.939C217.539 247.79 212.559 238.958 204.935 232.897ZM143.966 206.893C145.005 206.853 146.228 206.994 146.758 207.888C147.005 208.304 147.043 208.836 146.858 209.283C144.208 207.782 140.331 209.511 139.678 212.486C138.358 211.632 138.502 209.487 139.61 208.372C140.717 207.258 142.396 206.955 143.966 206.893ZM161.11 197.905C159.125 199.902 159.124 203.519 161.107 205.518C161.831 206.248 161.602 207.578 160.833 208.262C160.063 208.946 158.943 209.09 157.921 208.966C155.854 208.717 154.101 207.565 152.334 206.404C151.146 205.623 149.952 204.839 148.652 204.321C144.571 202.696 139.743 203.94 136.282 206.645C132.822 209.349 130.555 213.312 128.939 217.396C127.641 220.674 126.705 224.32 127.709 227.7C129.06 232.251 133.474 235.076 137.559 237.495C134.003 237.256 130.955 241.423 132.259 244.74C132.786 246.079 133.827 247.143 134.881 248.124C137.781 250.822 140.981 253.196 144.404 255.189C145.046 255.563 146.343 255.237 145.858 254.675L135.296 246.604C132.862 244.744 134.326 240.443 137.128 239.205C139.931 237.967 143.168 238.785 146.116 239.617L136.075 233.778C133.845 232.482 131.507 231.076 130.282 228.806C128.422 225.359 129.7 221.112 131.211 217.499C132.535 214.337 134.063 211.174 136.492 208.756C138.921 206.337 142.422 204.76 145.787 205.411C147.878 205.815 149.691 207.004 151.487 208.181C151.855 208.423 152.223 208.664 152.592 208.898C154.76 210.271 157.303 211.461 159.813 210.926C162.323 210.391 164.335 207.346 162.968 205.174C161.615 203.022 160.955 200.442 161.11 197.905ZM153.689 214.389C154.42 214.892 155.222 215.517 155.28 216.402C155.299 216.705 155.212 217.031 154.983 217.231C154.7 217.478 154.284 217.478 153.907 217.465C152.792 217.425 151.603 217.361 150.699 216.706C149.795 216.05 149.408 214.571 150.233 213.819C151.169 212.967 152.647 213.67 153.689 214.389ZM35.9804 238.911C31.2679 233.306 24.1187 229.824 16.7999 229.571C15.3212 229.52 16.2523 227.136 17.5265 226.384C29.6837 219.209 44.3172 216.054 58.2409 218.381C72.1646 220.707 85.21 228.676 92.9942 240.453C95.9038 244.855 98.0573 249.686 100.21 254.514L100.21 254.515C100.916 256.099 101.623 257.683 102.355 259.252C105.321 265.601 108.865 271.886 114.23 276.395C119.596 280.903 127.124 283.366 133.78 281.174C134.272 281.012 134.785 280.805 135.089 280.385C135.47 279.857 135.418 279.154 135.369 278.495L135.362 278.399L135.358 278.339C134.879 271.488 140.231 265.78 145.191 261.03C138.37 263.178 133.416 270.2 133.679 277.347C133.709 278.157 133.632 279.219 132.848 279.426C123.996 281.76 114.873 275.717 109.674 268.183C106.677 263.841 104.547 259.008 102.413 254.168C100.844 250.609 99.2737 247.046 97.3565 243.674C87.0857 225.607 66.0589 214.015 45.3456 215.712C36.1812 216.462 27.3863 219.58 18.8526 223.005C16.7277 223.857 14.4425 224.88 13.3938 226.915C12.3451 228.951 13.5705 232.144 15.8567 232.019C22.5857 231.652 29.4156 234.651 33.6979 239.855C35.9131 242.547 37.4284 245.708 38.9412 248.864C39.381 249.781 39.8206 250.698 40.2772 251.603C48.5512 268.004 63.1694 281.101 80.3774 287.531C97.5854 293.96 117.21 293.658 134.212 286.7L134.336 286.649C135.695 286.092 137.122 285.508 138.572 285.717C140.065 285.932 141.488 287.389 141.056 288.835C140.23 291.603 142.035 294.654 144.579 296.023C147.123 297.392 150.185 297.398 153.041 296.962C154.306 296.769 155.711 296.389 156.331 295.27C156.951 294.151 155.878 292.336 154.706 292.847C152.932 293.62 151.539 290.648 152.662 289.072C153.607 287.745 155.257 287.257 156.856 286.785L156.857 286.785L156.858 286.784L156.859 286.784C157.157 286.696 157.454 286.608 157.745 286.515C163.192 284.775 167.624 280.151 169.132 274.635C169.909 271.79 169.858 268.493 168.024 266.184C164.525 261.778 156.681 264.103 154.156 269.13C151.632 274.158 152.926 280.229 154.857 285.513L150.462 285.955C151.191 288.402 150.88 291.14 149.621 293.361L153.074 294.674C149.297 297.082 143.425 294.394 142.78 289.961C142.71 289.486 142.689 288.993 142.667 288.502V288.501C142.617 287.363 142.567 286.229 141.927 285.318C140.467 283.244 137.295 283.893 134.884 284.68C124.976 287.915 114.586 289.668 104.165 289.864C98.7995 289.965 93.3763 289.646 88.2127 288.185C83.0336 286.719 78.247 284.143 73.545 281.523C63.7926 276.09 53.8369 270.044 47.8113 260.646C45.9283 257.709 44.4756 254.509 43.0257 251.314C41.0387 246.937 39.0571 242.571 35.9804 238.911ZM159.077 266.353C161.912 264.725 166.18 265.635 167.431 268.654C168.17 270.437 167.776 272.485 167.131 274.304C165.764 278.161 163.298 281.621 160.098 284.172C159.028 285.025 157.046 285.536 156.629 284.232C155.634 281.119 154.627 277.932 154.726 274.665C154.824 271.398 156.243 267.98 159.077 266.353ZM173.1 265.385L174.934 266.085C174.342 266.922 173.71 267.793 172.787 268.24C171.864 268.686 170.563 268.53 170.065 267.634L173.037 265.594L173.1 265.385ZM180.48 263.39C179.59 263.369 178.652 263.334 177.897 262.864C176.504 261.998 176.301 260.089 176.246 258.449C174.699 259.105 174.233 261.278 175.025 262.761C175.816 264.243 177.497 265.065 179.159 265.315C180.453 265.51 181.764 265.417 183.074 265.324C183.446 265.298 183.818 265.271 184.19 265.252C186.86 265.11 189.579 265.305 192.288 265.5C197.422 265.868 202.524 266.235 207.207 264.301C210.72 262.851 213.602 260.236 216.407 257.671C216.884 257.235 217.395 256.727 217.421 256.082C217.447 255.436 216.616 254.818 216.148 255.263C212.511 258.719 208.619 262.315 203.722 263.402C201.53 263.889 199.26 263.838 197.016 263.784L180.48 263.39ZM172.754 203.874C173.61 203.579 174.24 204.984 173.647 205.669C173.054 206.354 171.968 206.318 171.118 206.004C170.647 205.83 170.18 205.57 169.913 205.145C169.506 204.498 169.721 203.54 170.365 203.129C171.009 202.717 171.968 202.925 172.384 203.566L172.754 203.874ZM194.792 241.354L193.851 239.874C188.933 243.988 185.412 249.743 183.987 255.994C183.767 256.961 183.68 258.17 184.485 258.75C185.462 258.075 185.777 256.814 186.068 255.652L186.106 255.499C187.475 250.049 190.55 245.041 194.792 241.354ZM163.274 201.264C162.547 200.741 162.796 199.379 163.66 199.146C164.525 198.914 165.423 199.967 165.057 200.784C164.726 201.521 163.793 201.722 162.992 201.828L163.274 201.264ZM164.831 286.553C164.35 285.546 162.77 285.059 162.118 285.964C163.041 286.252 162.964 287.291 162.884 288.38C162.809 289.393 162.732 290.451 163.454 290.988C163.612 291.105 163.795 291.182 163.978 291.258C164.166 291.336 164.354 291.414 164.515 291.537C164.832 291.78 164.955 292.358 164.596 292.533C162.692 293.634 159.888 292.464 159.331 290.337C159.29 290.183 159.258 290.023 159.227 289.862C159.13 289.375 159.033 288.886 158.689 288.545C158.232 288.092 157.168 288.421 157.375 289.031C157.544 290.906 157.878 293.06 159.489 294.035C160.741 294.792 162.329 294.551 163.768 294.285L169.785 293.172C169.314 291.004 166.962 289.433 164.779 289.828C165.05 288.746 165.311 287.559 164.831 286.553ZM188.757 258.969C190.269 253.761 193.369 249.026 197.539 245.558C197.812 245.331 198.109 245.1 198.461 245.052C198.909 244.991 199.381 245.281 199.529 245.708C196.271 248.841 193.596 252.579 191.683 256.675C191.102 257.918 190.041 259.453 188.757 258.969ZM175.685 245.759L178.828 230.221C177.763 230.139 177.093 231.32 176.737 232.326C175.035 237.132 174.191 242.241 174.259 247.34C175.031 247.555 175.526 246.544 175.685 245.759ZM195.696 258.946C194.698 258.212 195.336 256.633 196.097 255.655C198.507 252.556 201.469 249.888 204.802 247.814C205.531 248.081 205.09 249.185 204.551 249.745L195.696 258.946ZM206.515 256.186C206.084 255.074 204.405 255.646 203.468 256.384L199.919 259.184C200.02 259.636 200.271 260.052 200.624 260.351C202.874 259.443 204.908 258.005 206.515 256.186ZM196.835 222.578C196.091 222.195 195.05 222.866 195.09 223.701C195.13 224.537 196.232 225.103 196.935 224.651C197.638 224.198 197.579 222.961 196.835 222.578ZM199.823 222.276C200.704 221.837 201.262 220.823 201.162 219.843L201.265 219.814C200.62 219.368 199.615 219.591 199.218 220.268C198.821 220.945 199.118 221.931 199.823 222.276ZM218.089 234.701C217.849 235.085 217.586 235.454 217.301 235.805C217.127 236.02 216.913 236.245 216.636 236.262C216.301 236.282 216.038 235.993 215.829 235.731C215.101 234.816 214.353 233.862 214.076 232.726C213.798 231.59 214.13 230.216 215.148 229.641C215.222 230.385 215.961 230.592 216.747 230.812C217.293 230.965 217.861 231.125 218.245 231.475C219.11 232.265 218.71 233.707 218.089 234.701ZM191.95 220.539C192.478 219.786 193.835 219.905 194.223 220.738C194.611 221.572 193.83 222.687 192.914 222.607C191.998 222.526 191.423 221.292 191.95 220.539Z" fill="#00160A"/>
<path fill-rule="evenodd" clip-rule="evenodd" d="M312.318 216.022C314.275 215.806 316.114 217.332 316.807 219.176C317.5 221.02 317.271 223.082 316.8 224.994C316.258 227.197 315.41 229.323 314.286 231.294C313.76 232.218 313.016 233.204 311.955 233.269C310.5 233.359 309.604 231.725 309.198 230.325C308.532 228.027 308.173 225.64 308.133 223.247C308.107 221.716 308.222 220.14 308.871 218.752C309.52 217.365 310.795 216.19 312.318 216.022Z" fill="#1F1E1A"/>
<path fill-rule="evenodd" clip-rule="evenodd" d="M213.073 22.9823C212.255 24.5107 211.29 26.4698 212.384 27.8145C214.366 25.9743 216.333 24.1168 218.203 22.1624C220.7 19.5518 223.054 16.7154 224.459 13.3871C225.863 10.0588 226.229 6.15478 224.758 2.8549C223.968 1.08245 222.013 -0.6289 220.272 0.227595C219.172 0.768886 218.732 2.08513 218.438 3.2756C217.954 5.22986 217.57 7.22031 217.185 9.21006C216.265 13.9734 215.346 18.7328 213.073 22.9823ZM222.696 12.6951C221.296 15.9905 218.913 18.7545 216.567 21.4596C216.214 21.8665 215.769 22.3118 215.234 22.2472C217.14 18.1405 218.451 13.7577 219.112 9.27852C219.156 8.98414 219.197 8.68785 219.238 8.39079C219.525 6.32537 219.817 4.22315 220.918 2.47087C221.159 2.08635 221.559 1.67934 221.994 1.80865C222.247 1.88373 222.413 2.12023 222.548 2.34687C224.377 5.42488 224.096 9.39967 222.696 12.6951ZM174.525 34.5586C174.414 30.3929 173.017 26.2703 170.574 22.8946C169.507 21.4197 167.964 19.9693 166.151 20.1374C164.07 20.3304 162.808 22.5205 162.224 24.5265C160.758 29.5637 161.324 35.0302 162.99 40.0047C164.657 44.9792 167.372 49.5319 170.24 53.9247C170.721 54.6616 171.714 55.4681 172.334 54.8434C172.568 54.6069 172.617 54.2486 172.654 53.9174L174.161 40.2193C174.368 38.3383 174.575 36.4503 174.525 34.5586ZM169.581 49.7987C165.626 42.1507 161.626 33.577 163.809 25.2478C164.042 24.3594 164.368 23.4501 165.043 22.8276C165.718 22.2051 166.832 21.9739 167.56 22.5336C171.553 25.6025 172.724 31.154 172.535 36.186C172.459 38.206 172.211 40.2195 171.963 42.2311L171.963 42.2312C171.594 45.2306 171.226 48.2261 171.428 51.2335C170.606 51.4214 169.968 50.5474 169.581 49.7987ZM201.522 35.9916C201.019 34.6943 200.175 33.4878 198.974 32.7855C197.142 31.7145 194.737 32.0009 192.913 33.0855C191.089 34.17 189.768 35.9366 188.736 37.7911C183.802 46.6628 184.842 57.9673 189.367 67.0548C189.584 67.4903 189.839 67.9527 190.283 68.1521C190.727 68.3516 191.385 68.0968 191.386 67.6103C191.391 64.0558 192.213 60.5051 193.769 57.3094C194.71 55.3766 195.907 53.5883 197.104 51.7991C198.093 50.3216 199.082 48.8434 199.928 47.2828C201.798 43.8323 202.941 39.6511 201.522 35.9916ZM190.121 39.1135C191.42 36.4237 193.871 33.6017 196.802 34.1766C198.859 34.5801 200.274 36.6594 200.486 38.745C200.697 40.8306 199.94 42.8946 198.992 44.7641C198.062 46.597 196.941 48.3221 195.82 50.0473C194.746 51.7003 193.672 53.3535 192.765 55.1018C191.358 57.8165 190.367 60.7467 189.838 63.7584C186.326 56.0352 186.432 46.7542 190.121 39.1135ZM153.083 61.6579C154.263 60.5787 156.076 60.4054 157.598 60.8976C159.12 61.3898 160.392 62.452 161.492 63.6126C166.877 69.292 168.761 77.3451 170.435 84.9904C170.54 85.4686 170.141 86.2335 169.831 85.8551C167.738 83.3036 164.999 81.4329 162.258 79.5605L162.258 79.5604C161.094 78.7656 159.93 77.9706 158.815 77.123C155.072 74.2788 151.615 70.2838 151.63 65.583C151.634 64.1467 152.023 62.6271 153.083 61.6579ZM154.267 63.1942C153.526 63.9197 153.41 65.0716 153.517 66.1027C153.941 70.204 157.053 73.498 160.314 76.0224C162.524 77.7341 164.883 79.2539 167.356 80.559C166.566 74.6218 163.853 68.9557 159.724 64.6174C158.274 63.0946 155.768 61.7227 154.267 63.1942Z" fill="#FFB61D"/>
<path fill-rule="evenodd" clip-rule="evenodd" d="M334.319 220.427C335.735 220.721 336.493 222.26 336.864 223.658C338.046 228.115 337.344 233.04 334.964 236.99C334.83 237.213 334.682 237.442 334.456 237.574C333.681 238.026 332.854 237.063 332.505 236.236C331.052 232.793 330.384 229.022 330.564 225.29C330.62 224.122 330.773 222.915 331.384 221.918C331.996 220.921 333.174 220.19 334.319 220.427L334.319 220.427Z" fill="#1F1E1A"/>
<path fill-rule="evenodd" clip-rule="evenodd" d="M352.607 217.795C354.085 220.981 354.509 224.646 353.798 228.086C353.563 229.223 353.042 230.504 351.919 230.801C350.333 231.22 349.119 229.423 348.487 227.908C347.197 224.816 345.998 221.401 346.927 218.182C347.357 216.694 348.595 215.162 350.128 215.384C351.319 215.557 352.101 216.703 352.607 217.795L352.607 217.795Z" fill="#1F1E1A"/>
<path fill-rule="evenodd" clip-rule="evenodd" d="M314.564 186.988C315.129 191.073 314.58 195.307 312.991 199.113C312.576 200.108 311.891 201.213 310.814 201.257C309.424 201.315 308.696 199.626 308.531 198.245C308.11 194.719 308.806 191.068 310.495 187.944C310.937 187.128 311.502 186.298 312.368 185.964C313.235 185.63 314.437 186.068 314.564 186.988V186.988Z" fill="#1F1E1A"/>
<path fill-rule="evenodd" clip-rule="evenodd" d="M297.05 232.146C297.993 235.986 296.159 240.34 292.753 242.348C292.07 242.751 291.136 242.398 290.659 241.764C290.183 241.129 290.062 240.3 290.019 239.508C289.858 236.577 290.557 233.604 292.007 231.053C292.439 230.293 293.011 229.515 293.859 229.304C295.399 228.92 296.671 230.604 297.05 232.146L297.05 232.146Z" fill="#1F1E1A"/>
<path fill-rule="evenodd" clip-rule="evenodd" d="M293.5 214.165C292.456 211.577 292.419 208.597 293.399 205.984C293.717 205.135 294.203 204.263 295.039 203.911C296.764 203.184 298.461 205.116 298.981 206.915C299.681 209.339 299.508 212.004 298.5 214.316C298.044 215.362 297.237 216.451 296.096 216.487C294.858 216.527 293.963 215.314 293.5 214.165H293.5Z" fill="#1F1E1A"/>
<path fill-rule="evenodd" clip-rule="evenodd" d="M328.923 209.412C329.263 210.246 329.584 211.124 329.512 212.021C329.44 212.917 328.862 213.836 327.981 214.016C326.759 214.265 325.747 213.086 325.144 211.995C324.328 210.518 323.691 208.942 323.252 207.312C322.991 206.34 322.806 205.276 323.201 204.351C323.596 203.425 324.788 202.785 325.65 203.305C326.042 203.542 326.286 203.958 326.508 204.359C327.411 205.994 328.218 207.683 328.923 209.412H328.923Z" fill="#1F1E1A"/>
<path fill-rule="evenodd" clip-rule="evenodd" d="M421.772 188.477C419.789 191.289 417.369 193.928 414.234 195.345C411.099 196.762 407.133 196.728 404.468 194.552C402.328 200.954 393.925 204.343 387.942 201.217C387.243 206.456 383.017 211.039 377.851 212.159C372.685 213.28 366.941 210.86 364.133 206.381C362.673 204.051 359.612 203.434 356.653 202.839C353.327 202.169 350.131 201.525 349.486 198.5C348.833 201.774 345.807 204.42 342.475 204.631C339.143 204.841 335.808 202.596 334.748 199.431C331.124 201.126 326.63 199.335 324.024 196.298C321.419 193.261 320.28 189.265 319.284 185.39C311.611 155.523 308.211 124.618 308.365 93.7812C307.599 97.5257 302.384 98.8517 299.061 96.9644C295.737 95.0771 294.068 91.2341 293.092 87.5388C292.303 84.5508 288.434 83.5205 285.413 84.1703C284.006 84.4728 282.664 85.0123 281.324 85.5513C279.785 86.17 278.248 86.788 276.617 87.0459C270.705 87.9809 264.745 83.5867 262.885 77.8974C261.025 72.2081 262.767 65.7611 266.374 60.9849C269.982 56.2088 275.241 52.9188 280.731 50.5345C287.814 47.4582 295.477 45.7222 303.194 45.4452C305.07 45.3778 307.334 45.1693 308.169 43.4874C311.415 44.9902 315.007 45.3939 318.586 45.796L318.586 45.796C319.565 45.9061 320.543 46.016 321.513 46.1483C332.076 47.5892 342.233 51.9065 350.601 58.5125C356.58 63.2327 361.573 69.0136 366.569 74.7971C371.232 80.1965 375.898 85.5983 381.37 90.1414C389.132 96.5857 398.359 101.188 407.533 105.763C420.465 112.212 433.29 118.608 441.752 130.037C445.969 135.731 448.819 142.431 449.995 149.419C451.1 155.977 450.569 163.232 446.47 168.469C442.37 173.705 433.94 175.783 428.867 171.483C427.78 177.574 425.339 183.421 421.772 188.477ZM304.31 57.6C307.001 54.919 308.832 51.387 309.473 47.6423C303.453 46.2711 297.175 47.6596 291.218 49.282C284.568 51.0933 277.826 53.2913 272.464 57.6221C267.102 61.9529 263.337 68.8668 264.508 75.6592C264.978 78.3851 266.938 81.4077 269.687 81.1024L268.304 82.843C268.544 83.3881 269.144 83.7521 269.739 83.7129C272.284 83.3604 274.548 81.4547 275.331 79.0075C275.442 78.66 275.527 78.299 275.613 77.9382C275.822 77.0573 276.031 76.1778 276.608 75.4992C277.422 74.5428 279.396 74.5678 279.585 75.8093C279.708 76.6137 279.041 77.3425 278.418 78.0237C277.713 78.7936 277.065 79.5026 277.675 80.1906C280.41 78.3791 283.08 76.4682 285.676 74.4631C287.291 73.2161 289.054 71.2128 288.103 69.4075C287.446 68.1611 288.336 66.3916 289.728 66.1749C291.12 65.9582 292.505 67.3737 292.258 68.7607C293.754 67.7376 295.285 66.6807 296.316 65.1905C297.348 63.7003 297.787 61.6586 296.932 60.0602C296.257 58.7974 297.001 57.0036 298.371 56.5889C299.742 56.1743 301.355 57.2551 301.493 58.6803C302.501 58.0361 302.111 56.4763 301.49 55.4534C300.87 54.4305 300.115 53.1619 300.738 52.1408C301.651 50.6449 303.946 51.7367 305.234 52.9252C305.554 51.6619 305.347 50.2733 304.672 49.1586C304.641 47.9881 306.455 47.5111 307.283 48.3382C308.112 49.1653 308.009 50.577 307.457 51.6097C307.095 52.2873 306.582 52.8621 306.069 53.4378C305.8 53.7395 305.53 54.0414 305.282 54.3585C304.561 55.2807 304 56.4707 304.31 57.6ZM403.681 178.534C406.707 178.699 407.292 182.951 406.643 185.911C405.994 188.871 405.46 192.804 408.169 194.161C409.78 194.968 411.731 194.292 413.296 193.398C420.667 189.19 424.569 180.784 426.76 172.583C427.015 171.627 427.15 170.381 426.309 169.858C417.436 164.342 411.167 154.817 409.61 144.486C411.761 144.901 412.544 147.492 413.143 149.599C415.358 157.379 420.78 164.193 427.863 168.098C428.817 152.507 423.444 136.62 413.221 124.81C416.545 125.444 418.856 128.424 420.607 131.32C427.388 142.533 430.616 155.858 429.72 168.932C432.157 172.452 437.607 172.842 441.236 170.571C444.864 168.299 446.865 164.087 447.702 159.889C449.911 148.813 445.112 137.234 437.564 128.833C430.016 120.432 419.996 114.702 409.965 109.512C408.615 108.813 407.259 108.12 405.902 107.426C397.182 102.969 388.424 98.4936 380.849 92.3188C375.142 87.6663 370.236 82.1537 365.329 76.6401C360.61 71.3373 355.889 66.0337 350.455 61.4932C340.855 53.4732 328.943 47.9786 316.467 47.0701C314.377 46.9179 311.961 47.031 310.648 48.6646C309.335 50.2981 310.886 53.545 312.809 52.7117L305.299 58.3948C307.088 58.7052 308.226 60.9615 307.412 62.5849C306.599 64.2082 304.11 64.6463 302.791 63.3984C304.308 63.0455 305.617 61.8972 306.165 60.4384C302.098 61.6717 298.539 64.5021 296.421 68.1869C298.102 67.9242 299.878 69.1657 300.209 70.835C298.985 71.1148 297.65 71.2842 296.308 71.4544C292.279 71.9656 288.191 72.4844 286.886 76.0203C288.662 76.062 290.352 77.2854 290.947 78.9598C287.127 78.0219 282.918 78.8053 279.692 81.0549C281.537 81.9359 283.666 81.9862 285.773 82.036C288.321 82.0962 290.838 82.1557 292.783 83.6825C294.529 85.0541 295.263 87.1938 296.001 89.3453C296.334 90.3176 296.669 91.2923 297.098 92.1996C298.476 95.1148 302.596 97.4729 304.722 95.0487C305.072 94.6501 305.324 94.1562 305.573 93.6676C305.974 92.8808 306.367 92.108 307.151 91.77C309.39 90.8051 310.757 94.2771 310.747 96.7148C310.621 126.548 314.117 156.395 321.132 185.392C321.919 188.646 322.803 191.999 324.897 194.61C326.991 197.221 330.636 198.892 333.761 197.692C330.329 192.873 329.442 186.344 331.463 180.783C331.423 185.83 332.589 190.882 334.835 195.402L333.598 181.643C336.611 183.801 336.498 187.893 336.385 191.955C336.271 196.101 336.157 200.217 339.37 202.214C342.531 204.178 347.399 201.433 347.327 197.712C347.292 195.884 346.317 194.203 345.358 192.549C344.198 190.548 343.06 188.586 343.637 186.45L348.746 194.051L347.435 180.908C349.913 184.066 350.933 188.322 350.157 192.26C349.562 195.275 350.825 198.58 353.279 200.43C355.733 202.28 359.257 202.585 361.992 201.184C358.819 195.627 357.214 189.187 357.408 182.792L364.1 200.996C367.515 196.815 368.662 190.888 367.054 185.735C371.202 190.565 369.79 199.04 364.299 202.262C365.562 206.262 369.194 209.412 373.333 210.095C377.471 210.778 381.923 208.964 384.404 205.582C386.008 203.398 386.699 200.134 384.937 198.075C378.602 190.67 375.746 180.407 377.346 170.794C378.956 179.674 380.704 188.887 386.004 196.191L382.841 183.628C385.611 185.065 386.181 188.321 386.757 191.615C387.303 194.737 387.855 197.893 390.291 199.569C394.461 202.438 400.002 198.308 402.495 193.903C396.645 181.699 391.468 169.173 386.997 156.4C391.724 161.132 393.821 167.598 395.925 174.084C397.882 180.119 399.845 186.172 403.937 190.861C405.141 186.861 405.05 182.482 403.681 178.534ZM280.735 83.4428C278.12 82.5036 275.034 83.0143 272.861 84.746C275.503 85.5097 278.48 85.0171 280.735 83.4428ZM299.621 58.5239C298.972 58.0996 297.947 58.618 297.904 59.3923C297.861 60.1665 298.823 60.7949 299.515 60.4449C300.207 60.0949 300.27 58.9482 299.621 58.5239ZM289.927 69.9719C290.639 69.7639 291.067 68.8825 290.791 68.1939C290.44 67.9034 289.856 68.1795 289.698 68.6069C289.54 69.0343 289.685 69.5128 289.88 69.9247L289.927 69.9719ZM309.588 54.0855C310.081 53.9314 310.333 53.2688 310.067 52.8256C309.483 52.5986 309.29 53.6218 309.573 54.1802L309.588 54.0855ZM295.592 131.02C289.516 129.076 284.353 124.445 281.764 118.614C281.257 117.473 279.84 116.93 278.522 116.425C276.96 115.826 275.536 115.281 275.931 113.854C276.934 110.23 275.9 106.474 274.886 102.791C274.682 102.046 274.477 101.305 274.291 100.568C273.183 96.1852 272.963 90.8744 276.315 87.8413C275.018 92.7873 275.218 98.1156 276.882 102.95C276.989 103.259 277.099 103.572 277.212 103.891C278.383 107.204 279.718 110.983 277.458 113.515C277.764 114.956 279.823 115.362 281.07 114.578C282.316 113.794 282.921 112.326 283.451 110.952C282.215 119.114 288.403 127.682 296.54 129.074C301.454 129.915 305.855 133.317 307.907 137.86C309.959 142.403 309.6 147.955 306.982 152.197C310.125 153.557 312.097 156.877 312.633 160.26C313.169 163.642 312.474 167.098 311.538 170.393C306.66 187.553 294.863 202.639 279.384 211.51C276.633 213.087 275.148 216.076 273.675 219.039C272.066 222.276 270.472 225.483 267.258 226.781C265.306 227.569 262.309 226.709 262.445 224.608C261.113 225.675 259.607 226.783 257.903 226.698C256.198 226.613 254.617 224.585 255.6 223.191C253.376 224.152 250.315 224.906 248.921 222.924C247.522 220.935 249.377 218.191 251.506 217.015C252.125 216.673 252.785 216.379 253.444 216.085C255.051 215.368 256.654 214.652 257.659 213.251C255.611 213.049 253.358 212.747 251.994 211.206C250.629 209.665 251.212 206.528 253.268 206.42C260.195 206.055 266.962 203.171 272.021 198.425C277.813 192.992 281.111 185.605 284.378 178.286C285.096 176.677 285.813 175.071 286.555 173.489C290.668 164.718 296.531 155.763 305.755 152.8C306.504 149.331 307.258 145.796 306.921 142.263C306.584 138.731 304.976 135.137 301.955 133.276C300.562 132.418 298.977 131.98 297.391 131.542C296.788 131.376 296.185 131.21 295.592 131.02ZM280.46 208.501C295.665 199.204 306.787 183.471 310.48 166.036C311.018 163.499 311.385 160.759 310.331 158.39C309.277 156.02 306.286 154.346 304.002 155.574C296.019 159.861 291.243 168.29 287.463 176.526C286.986 177.566 286.514 178.614 286.042 179.665L286.042 179.665L286.042 179.666L286.041 179.667L286.041 179.667L286.041 179.668C282.774 186.935 279.459 194.308 273.746 199.787C268.319 204.992 260.919 208.088 253.402 208.298C252.649 208.73 253.228 209.993 254.064 210.227C254.521 210.355 254.997 210.326 255.474 210.297C255.87 210.273 256.268 210.248 256.656 210.314C259.02 210.713 259.527 214.26 257.984 216.095C256.442 217.93 253.876 218.45 251.514 218.858C249.955 219.127 250.609 221.853 252.165 222.137C253.511 222.382 254.763 221.612 255.957 220.878C256.144 220.763 256.329 220.649 256.513 220.54C257.874 219.734 259.814 219.232 260.886 220.394C258.868 221.405 257.475 223.563 257.387 225.819C259.936 223.154 263.607 221.599 267.294 221.622L264.335 225.285C268.451 224.426 271.863 220.861 272.54 216.711C273.153 212.96 276.841 210.709 280.117 208.71L280.46 208.501ZM290.564 250.478C287.692 252.09 283.503 253.741 281.647 251.021C280.781 249.753 280.958 248.071 281.17 246.55L286.593 207.615C287.704 218.78 286.7 230.151 283.65 240.949C282.719 244.247 281.656 248.017 283.508 250.902C291.787 246.264 301.006 243.313 310.439 242.281C317.23 241.538 324.151 241.768 331.05 241.998C342.157 242.367 353.207 242.735 363.565 239.035C366.081 238.137 368.613 236.932 370.257 234.826C371.901 232.72 372.384 229.507 370.734 227.405L354.845 207.168C354.095 206.213 353.464 204.57 354.546 204.016L369.192 221.448C372.282 225.126 375.563 229.968 373.57 234.339C372.541 236.597 370.311 238.053 368.09 239.16C356.901 244.734 344.292 244.315 331.573 243.893C321.913 243.572 312.189 243.249 302.978 245.548C298.645 246.63 294.458 248.293 290.564 250.478ZM309.758 292.006L308.985 293.756C309.892 295.649 312.447 295.903 314.545 295.812C318.979 295.621 323.399 295.075 327.746 294.181C331.404 293.429 335.562 291.93 336.674 288.366C337.328 286.271 336.712 284.051 336.119 281.909L336.118 281.909C336.045 281.645 335.972 281.382 335.902 281.121C334.464 275.762 334.182 270.096 335.08 264.621C335.445 262.397 336.002 260.193 336.559 257.993C337.611 253.835 338.66 249.688 338.401 245.437C332.868 257.376 331.41 271.159 334.322 283.991L334.355 284.137C334.668 285.51 334.997 286.956 334.538 288.282C333.794 290.436 331.329 291.395 329.124 291.974C324.988 293.062 319.956 293.511 317.032 290.391C316.83 290.175 316.638 289.938 316.545 289.657C316.143 288.44 317.641 287.545 318.78 286.957C323.129 284.713 325.552 279.764 326.049 274.895C326.545 270.027 325.419 265.154 324.282 260.394L324.276 260.367L324.276 260.367C323.142 255.615 321.984 250.766 322.407 245.9C322.479 245.072 321.111 244.835 320.584 245.477C320.058 246.12 320.162 247.053 320.294 247.873L324.352 273.004C324.843 276.048 323.612 279.176 321.673 281.574C319.735 283.972 317.145 285.747 314.534 287.387C313.201 288.225 311.769 289.062 310.195 289.092C308.621 289.122 306.913 288.025 306.849 286.452C311.373 285.212 314.407 280.725 315.324 276.125C316.241 271.524 315.437 266.776 314.634 262.155L312.368 249.128C312.043 247.256 310.993 244.844 309.129 245.211C311.547 253.223 313.039 261.515 313.564 269.867C313.775 273.226 313.78 276.801 312.054 279.69C310.473 282.334 307.688 283.986 304.986 285.466C303.782 286.126 302.524 286.815 301.754 287.953C300.985 289.09 300.9 290.821 301.949 291.706C302.995 292.588 304.425 292.235 305.861 291.881C307.275 291.532 308.694 291.182 309.758 292.006ZM316.777 292.467C317.642 292.759 318.497 293.049 318.68 293.88C316.482 294.164 314.246 294.157 312.05 293.859C311.046 293.723 310.697 292.302 311.217 291.434C311.738 290.565 312.748 290.142 313.692 289.774C314.229 290.654 314.81 291.576 315.725 292.052C316.044 292.219 316.411 292.343 316.777 292.467L316.777 292.467ZM303.925 288.654C304.671 288.14 305.786 288.264 306.402 288.927L306.58 288.773C306.86 289.17 306.84 289.752 306.534 290.129C305.388 289.93 304.158 290.285 303.294 291.065C302.895 290.252 303.179 289.167 303.925 288.654ZM288.441 99.3042C286.224 97.851 284.05 98.5414 282.281 101.104C281.986 101.53 282.093 102.114 282.52 102.408C282.946 102.703 283.53 102.596 283.825 102.17C285.061 100.378 286.137 100.037 287.412 100.873C287.846 101.157 288.427 101.036 288.711 100.603C288.995 100.17 288.874 99.5882 288.441 99.3042ZM280.469 92.8069C279.676 92.4514 280.212 91.2183 280.925 90.7212C282.304 89.7599 283.991 89.3727 285.631 89.0055C287.567 88.5721 289.89 88.2439 291.273 89.6658C288.008 90.7762 284.716 91.8091 281.402 92.7633C281.096 92.8513 280.76 92.937 280.469 92.8069ZM295.478 111.94C295.844 111.457 296.173 111.117 296.585 110.857C297.494 110.285 298.617 110.328 299.456 111.091C302.535 113.891 301.555 117.98 298.255 121.094C295.192 123.985 291.049 125.261 288.371 123.283C286.321 121.768 286.626 119.694 288.535 118.472L288.589 118.438C289.115 118.119 290.802 117.271 290.78 117.283L290.96 117.185C291.483 116.894 291.866 116.633 292.142 116.373C292.568 115.972 292.982 115.5 293.405 114.943C293.728 114.518 294.457 113.435 294.93 112.733C295.146 112.411 295.309 112.169 295.355 112.106L295.478 111.94ZM289.487 121.773C293.249 124.553 302.772 116.641 298.195 112.479C297.655 111.988 297.053 112.904 296.175 114.237C295.473 115.306 294.593 116.642 293.429 117.738C292.683 118.441 291.662 118.95 290.773 119.393C289.227 120.165 288.082 120.736 289.487 121.773Z" fill="#00160A"/>
</svg>
