<svg width="21" height="20" viewBox="0 0 21 20" fill="none" xmlns="http://www.w3.org/2000/svg">
<path d="M10.0277 0C8.71458 0 7.41428 0.258646 6.20108 0.761171C4.98787 1.2637 3.88553 2.00026 2.95699 2.9288C1.08171 4.80408 0.0281851 7.34751 0.0281851 9.99956C0.0194433 12.3086 0.818942 14.5479 2.28809 16.3293L0.288174 18.3292C0.149422 18.4698 0.05543 18.6484 0.0180576 18.8424C-0.0193149 19.0363 0.00160682 19.237 0.0781829 19.4191C0.161237 19.5991 0.295877 19.7502 0.465013 19.8535C0.634148 19.9568 0.83015 20.0075 1.02814 19.9991H10.0277C12.6798 19.9991 15.2232 18.9456 17.0985 17.0703C18.9738 15.195 20.0273 12.6516 20.0273 9.99956C20.0273 7.34751 18.9738 4.80408 17.0985 2.9288C15.2232 1.05352 12.6798 0 10.0277 0ZM10.0277 17.9992H3.43803L4.36799 17.0692C4.55424 16.8819 4.65877 16.6284 4.65877 16.3643C4.65877 16.1001 4.55424 15.8467 4.36799 15.6593C3.05864 14.3514 2.24326 12.63 2.06079 10.7883C1.87831 8.94665 2.34003 7.09869 3.36726 5.55928C4.3945 4.01986 5.92372 2.88423 7.69436 2.34587C9.46501 1.80751 11.3675 1.89972 13.0778 2.6068C14.7881 3.31388 16.2003 4.59207 17.0739 6.22362C17.9474 7.85516 18.2283 9.73911 17.8685 11.5545C17.5088 13.3699 16.5308 15.0044 15.1011 16.1795C13.6714 17.3547 11.8784 17.9977 10.0277 17.9992Z" fill="#8F8F8F"/>
</svg>
