<svg width="20" height="22" viewBox="0 0 20 22" fill="none" xmlns="http://www.w3.org/2000/svg">
<path d="M17.088 3.9502C17.0806 3.94239 17.0784 3.93201 17.0708 3.92438C17.0632 3.91675 17.0526 3.91443 17.0447 3.90705C15.1743 2.0426 12.641 0.995667 10 0.995667C7.35902 0.995667 4.82573 2.0426 2.95526 3.90705C2.94739 3.91443 2.93689 3.91669 2.9292 3.92438C2.92151 3.93207 2.91937 3.94238 2.91205 3.9502C1.51831 5.35062 0.57065 7.13252 0.18867 9.07102C-0.19331 11.0095 0.0075112 13.0177 0.76579 14.8422C1.52407 16.6667 2.80582 18.2257 4.44927 19.3224C6.09273 20.4191 8.02423 21.0043 10 21.0043C11.9758 21.0043 13.9073 20.4191 15.5507 19.3224C17.1942 18.2257 18.4759 16.6667 19.2342 14.8422C19.9925 13.0177 20.1933 11.0095 19.8113 9.07102C19.4294 7.13252 18.4817 5.35062 17.088 3.9502ZM9.99995 18.9957C8.80222 18.9953 7.61992 18.7254 6.54062 18.2061C5.46132 17.6868 4.51268 16.9313 3.76495 15.9957H7.78022C8.05831 16.31 8.4 16.5617 8.78266 16.7341C9.16533 16.9065 9.58025 16.9957 9.99995 16.9957C10.4197 16.9957 10.8346 16.9065 11.2172 16.7341C11.5999 16.5617 11.9416 16.31 12.2197 15.9957H16.235C15.4873 16.9313 14.5386 17.6868 13.4593 18.2061C12.38 18.7254 11.1977 18.9953 9.99995 18.9957ZM8.99995 13.9957C8.99995 13.7979 9.0586 13.6045 9.16848 13.4401C9.27837 13.2756 9.43454 13.1475 9.61727 13.0718C9.8 12.9961 10.0011 12.9763 10.195 13.0149C10.389 13.0535 10.5672 13.1487 10.7071 13.2886C10.8469 13.4284 10.9422 13.6066 10.9807 13.8006C11.0193 13.9946 10.9995 14.1956 10.9238 14.3783C10.8481 14.5611 10.72 14.7173 10.5555 14.8271C10.3911 14.937 10.1977 14.9957 9.99995 14.9957C9.73482 14.9954 9.48062 14.89 9.29314 14.7025C9.10566 14.515 9.00022 14.2608 8.99995 13.9957ZM17.4102 13.9977L17.3999 13.9957H13C12.9981 13.3773 12.8048 12.7746 12.4467 12.2705C12.0886 11.7663 11.5832 11.3854 11 11.1799V7.99567C11 7.73045 10.8946 7.4761 10.7071 7.28856C10.5195 7.10102 10.2652 6.99567 9.99995 6.99567C9.73474 6.99567 9.48038 7.10102 9.29285 7.28856C9.10531 7.4761 8.99995 7.73045 8.99995 7.99567V11.1799C8.41669 11.3854 7.91132 11.7663 7.55322 12.2705C7.19512 12.7746 7.00186 13.3773 6.99995 13.9957H2.60005L2.58973 13.9977C2.32963 13.356 2.1547 12.6829 2.06941 11.9957H2.99995C3.26517 11.9957 3.51952 11.8903 3.70706 11.7028C3.8946 11.5152 3.99995 11.2609 3.99995 10.9957C3.99995 10.7304 3.8946 10.4761 3.70706 10.2886C3.51952 10.101 3.26517 9.99567 2.99995 9.99567H2.06941C2.2481 8.57424 2.80751 7.22749 3.68849 6.09778L4.34321 6.75251C4.43606 6.84535 4.54629 6.91901 4.6676 6.96925C4.78892 7.0195 4.91894 7.04537 5.05025 7.04537C5.18156 7.04536 5.31158 7.0195 5.43289 6.96925C5.5542 6.919 5.66443 6.84535 5.75728 6.7525C5.85013 6.65965 5.92378 6.54942 5.97403 6.42811C6.02428 6.3068 6.05014 6.17678 6.05014 6.04547C6.05014 5.91416 6.02428 5.78414 5.97403 5.66282C5.92378 5.54151 5.85012 5.43128 5.75727 5.33844L5.10261 4.68378C6.23224 3.80308 7.57877 3.24383 8.99995 3.06513V3.99567C8.99995 4.26088 9.10531 4.51524 9.29285 4.70277C9.48038 4.89031 9.73474 4.99567 9.99995 4.99567C10.2652 4.99567 10.5195 4.89031 10.7071 4.70277C10.8946 4.51524 11 4.26088 11 3.99567V3.06513C12.4211 3.24383 13.7677 3.80308 14.8973 4.68378L14.2426 5.33844C14.0551 5.52595 13.9498 5.78028 13.9498 6.04547C13.9498 6.31066 14.0551 6.56498 14.2426 6.7525C14.4301 6.94002 14.6845 7.04536 14.9497 7.04537C15.2148 7.04537 15.4692 6.94002 15.6567 6.75251L16.3114 6.09778C17.1924 7.22749 17.7518 8.57424 17.9305 9.99567H17C16.7347 9.99567 16.4804 10.101 16.2928 10.2886C16.1053 10.4761 16 10.7304 16 10.9957C16 11.2609 16.1053 11.5152 16.2928 11.7028C16.4804 11.8903 16.7347 11.9957 17 11.9957H17.9305C17.8452 12.6829 17.6703 13.356 17.4102 13.9977Z" fill="#FED830"/>
</svg>
