<svg width="29" height="26" viewBox="0 0 29 26" fill="none" xmlns="http://www.w3.org/2000/svg">
<path d="M13.6914 25.1641L13.6933 25.1653C13.9778 25.3384 14.3044 25.43 14.6374 25.43C14.9704 25.43 15.297 25.3384 15.5814 25.1653L15.5834 25.1641C21.3946 21.5916 24.6297 18.0168 26.4098 14.9286C28.1915 11.8376 28.4998 9.26139 28.4998 7.7144C28.4998 3.78019 25.2793 0.599976 21.3186 0.599976C19.2998 0.599976 17.5167 1.69053 16.2754 2.71939C15.6477 3.2397 15.1409 3.75886 14.7908 4.14793C14.7358 4.20903 14.6846 4.26702 14.6374 4.32138C14.5901 4.26702 14.5389 4.20903 14.4839 4.14793C14.1339 3.75886 13.6271 3.2397 12.9993 2.71939C11.758 1.69053 9.9749 0.599976 7.95614 0.599976C3.99541 0.599976 0.774902 3.78019 0.774902 7.7144C0.774902 9.26139 1.08323 11.8376 2.86496 14.9286C4.64505 18.0168 7.88011 21.5916 13.6914 25.1641Z" fill="#E64028" stroke="#E64028" stroke-linecap="round" stroke-linejoin="round"/>
</svg>
