<svg width="20" height="24" viewBox="0 0 20 24" fill="none" xmlns="http://www.w3.org/2000/svg">
<path d="M16.6562 13.5075V9.7312C16.6545 8.04866 16.0575 6.42101 14.9707 5.1365C13.884 3.85198 12.3778 2.9935 10.7188 2.71308V1.4187C10.7188 1.10376 10.5936 0.801711 10.3709 0.579012C10.1482 0.356312 9.84619 0.231201 9.53125 0.231201C9.21631 0.231201 8.91426 0.356312 8.69156 0.579012C8.46886 0.801711 8.34375 1.10376 8.34375 1.4187V2.71308C6.68474 2.9935 5.1785 3.85198 4.09177 5.1365C3.00504 6.42101 2.40796 8.04866 2.40625 9.7312V13.5075C1.71329 13.7524 1.11306 14.2058 0.687864 14.8053C0.262668 15.4048 0.0333157 16.1212 0.03125 16.8562V19.2312C0.03125 19.5461 0.156361 19.8482 0.379061 20.0709C0.60176 20.2936 0.903805 20.4187 1.21875 20.4187H4.9475C5.22096 21.425 5.81794 22.3133 6.64633 22.9466C7.47473 23.5799 8.4885 23.923 9.53125 23.923C10.574 23.923 11.5878 23.5799 12.4162 22.9466C13.2446 22.3133 13.8415 21.425 14.115 20.4187H17.8438C18.1587 20.4187 18.4607 20.2936 18.6834 20.0709C18.9061 19.8482 19.0312 19.5461 19.0312 19.2312V16.8562C19.0292 16.1212 18.7998 15.4048 18.3746 14.8053C17.9494 14.2058 17.3492 13.7524 16.6562 13.5075ZM4.78125 9.7312C4.78125 8.47142 5.28169 7.26324 6.17249 6.37244C7.06329 5.48165 8.27147 4.9812 9.53125 4.9812C10.791 4.9812 11.9992 5.48165 12.89 6.37244C13.7808 7.26324 14.2812 8.47142 14.2812 9.7312V13.2937H4.78125V9.7312ZM9.53125 21.6062C9.11678 21.6037 8.71018 21.4928 8.35186 21.2844C7.99354 21.0761 7.69598 20.7777 7.48875 20.4187H11.5738C11.3665 20.7777 11.069 21.0761 10.7106 21.2844C10.3523 21.4928 9.94572 21.6037 9.53125 21.6062ZM16.6562 18.0437H2.40625V16.8562C2.40625 16.5413 2.53136 16.2392 2.75406 16.0165C2.97676 15.7938 3.27881 15.6687 3.59375 15.6687H15.4688C15.7837 15.6687 16.0857 15.7938 16.3084 16.0165C16.5311 16.2392 16.6562 16.5413 16.6562 16.8562V18.0437Z" fill="#696969"/>
<circle cx="16" cy="4.0769" r="4" fill="#F92237"/>
</svg>
