<svg width="25" height="21" viewBox="0 0 25 21" fill="none" xmlns="http://www.w3.org/2000/svg">
<path d="M17.1719 18.5H5.17188C4.37623 18.5 3.61316 18.1839 3.05055 17.6213C2.48795 17.0587 2.17188 16.2956 2.17188 15.5V7.5C2.17188 7.23478 2.06652 6.98043 1.87898 6.79289C1.69145 6.60536 1.43709 6.5 1.17188 6.5C0.906659 6.5 0.652305 6.60536 0.464768 6.79289C0.277232 6.98043 0.171875 7.23478 0.171875 7.5L0.171875 15.5C0.171875 16.8261 0.698659 18.0979 1.63634 19.0355C2.57402 19.9732 3.84579 20.5 5.17188 20.5H17.1719C17.4371 20.5 17.6914 20.3946 17.879 20.2071C18.0665 20.0196 18.1719 19.7652 18.1719 19.5C18.1719 19.2348 18.0665 18.9804 17.879 18.7929C17.6914 18.6054 17.4371 18.5 17.1719 18.5ZM21.1719 0.5H7.17188C6.37623 0.5 5.61316 0.816071 5.05055 1.37868C4.48795 1.94129 4.17188 2.70435 4.17188 3.5V13.5C4.17188 14.2956 4.48795 15.0587 5.05055 15.6213C5.61316 16.1839 6.37623 16.5 7.17188 16.5H21.1719C21.9675 16.5 22.7306 16.1839 23.2932 15.6213C23.8558 15.0587 24.1719 14.2956 24.1719 13.5V3.5C24.1719 2.70435 23.8558 1.94129 23.2932 1.37868C22.7306 0.816071 21.9675 0.5 21.1719 0.5ZM20.7619 2.5L14.8819 8.38C14.7889 8.47373 14.6783 8.54812 14.5565 8.59889C14.4346 8.64966 14.3039 8.6758 14.1719 8.6758C14.0399 8.6758 13.9092 8.64966 13.7873 8.59889C13.6654 8.54812 13.5548 8.47373 13.4619 8.38L7.58187 2.5H20.7619ZM22.1719 13.5C22.1719 13.7652 22.0665 14.0196 21.879 14.2071C21.6914 14.3946 21.4371 14.5 21.1719 14.5H7.17188C6.90666 14.5 6.6523 14.3946 6.46477 14.2071C6.27723 14.0196 6.17188 13.7652 6.17188 13.5V3.87L12.0519 9.75C12.6144 10.3118 13.3769 10.6274 14.1719 10.6274C14.9669 10.6274 15.7294 10.3118 16.2919 9.75L22.1719 3.87V13.5Z" fill="#4F4F4F"/>
</svg>
