<svg width="25" height="25" viewBox="0 0 25 25" fill="none" xmlns="http://www.w3.org/2000/svg">
<path d="M19.355 14.4335C18.6463 14.4382 17.9474 14.5998 17.3086 14.9068C16.6698 15.2138 16.1069 15.6584 15.6604 16.2089L9.54265 13.3899C9.83029 12.5091 9.83029 11.5597 9.54265 10.6789L15.6604 7.85993C16.3821 8.73077 17.3882 9.31869 18.5011 9.51993C19.6141 9.72117 20.7624 9.52279 21.7433 8.95981C22.7242 8.39683 23.4748 7.50543 23.8625 6.44294C24.2501 5.38045 24.25 4.21516 23.8622 3.15274C23.4743 2.09032 22.7236 1.19906 21.7426 0.636258C20.7615 0.0734544 19.6132 -0.124713 18.5003 0.0767295C17.3874 0.278172 16.3814 0.866274 15.6598 1.73725C14.9383 2.60822 14.5477 3.70606 14.5568 4.83704C14.5604 5.12281 14.5885 5.40775 14.6408 5.68872L8.3071 8.60365C7.63185 7.94339 6.77676 7.49708 5.84897 7.32064C4.92118 7.1442 3.96196 7.24547 3.09148 7.61178C2.22099 7.97808 1.47796 8.59312 0.95548 9.37984C0.432997 10.1666 0.154297 11.09 0.154297 12.0344C0.154297 12.9788 0.432997 13.9022 0.95548 14.6889C1.47796 15.4757 2.22099 16.0907 3.09148 16.457C3.96196 16.8233 4.92118 16.9246 5.84897 16.7482C6.77676 16.5717 7.63185 16.1254 8.3071 15.4651L14.6408 18.3801C14.5885 18.661 14.5604 18.946 14.5568 19.2318C14.5568 20.1808 14.8382 21.1084 15.3655 21.8975C15.8927 22.6866 16.6421 23.3016 17.5188 23.6648C18.3956 24.0279 19.3604 24.1229 20.2911 23.9378C21.2219 23.7527 22.0769 23.2957 22.7479 22.6246C23.419 21.9536 23.8759 21.0986 24.0611 20.1678C24.2462 19.2371 24.1512 18.2723 23.788 17.3956C23.4249 16.5188 22.8099 15.7694 22.0208 15.2422C21.2317 14.7149 20.3041 14.4335 19.355 14.4335ZM19.355 2.43792C19.8295 2.43792 20.2934 2.57862 20.6879 2.84224C21.0825 3.10586 21.39 3.48055 21.5715 3.91893C21.7531 4.35731 21.8006 4.8397 21.7081 5.30508C21.6155 5.77046 21.387 6.19795 21.0515 6.53347C20.716 6.86899 20.2885 7.09749 19.8231 7.19006C19.3577 7.28263 18.8753 7.23512 18.4369 7.05353C17.9986 6.87195 17.6239 6.56445 17.3603 6.16992C17.0966 5.77538 16.9559 5.31154 16.9559 4.83704C16.9559 4.20075 17.2087 3.59052 17.6586 3.1406C18.1085 2.69068 18.7188 2.43792 19.355 2.43792ZM4.96033 14.4335C4.48583 14.4335 4.02198 14.2928 3.62745 14.0292C3.23292 13.7656 2.92542 13.3909 2.74383 12.9525C2.56225 12.5141 2.51474 12.0317 2.60731 11.5664C2.69988 11.101 2.92837 10.6735 3.2639 10.338C3.59942 10.0024 4.0269 9.77394 4.49229 9.68137C4.95767 9.5888 5.44005 9.63631 5.87843 9.8179C6.31682 9.99948 6.69151 10.307 6.95513 10.7015C7.21874 11.0961 7.35945 11.5599 7.35945 12.0344C7.35945 12.6707 7.10669 13.2809 6.65676 13.7308C6.20684 14.1808 5.59662 14.4335 4.96033 14.4335ZM19.355 21.6309C18.8805 21.6309 18.4167 21.4902 18.0222 21.2266C17.6276 20.9629 17.3201 20.5882 17.1386 20.1499C16.957 19.7115 16.9095 19.2291 17.002 18.7637C17.0946 18.2983 17.3231 17.8708 17.6586 17.5353C17.9941 17.1998 18.4216 16.9713 18.887 16.8787C19.3524 16.7862 19.8348 16.8337 20.2732 17.0153C20.7115 17.1968 21.0862 17.5043 21.3498 17.8989C21.6135 18.2934 21.7542 18.7573 21.7542 19.2318C21.7542 19.868 21.5014 20.4783 21.0515 20.9282C20.6016 21.3781 19.9913 21.6309 19.355 21.6309Z" fill="#4F4F4F"/>
</svg>
