<svg width="24" height="22" viewBox="0 0 24 22" fill="none" xmlns="http://www.w3.org/2000/svg">
<path d="M16.3607 18.752L15.7207 13.628C15.63 12.9022 15.2773 12.2346 14.7289 11.7506C14.1804 11.2667 13.4741 10.9997 12.7427 11H10.5387C9.80761 11.0002 9.10176 11.2674 8.55377 11.7513C8.00577 12.2352 7.65334 12.9026 7.56269 13.628L6.92169 18.752C6.88651 19.0335 6.91162 19.3193 6.99536 19.5903C7.07911 19.8614 7.21956 20.1116 7.40739 20.3242C7.59523 20.5368 7.82615 20.707 8.08482 20.8235C8.34348 20.94 8.62398 21.0002 8.90769 21H14.3757C14.6593 21.0001 14.9397 20.9398 15.1982 20.8232C15.4568 20.7066 15.6876 20.5364 15.8753 20.3238C16.063 20.1112 16.2034 19.8611 16.2871 19.5901C16.3708 19.3191 16.3959 19.0334 16.3607 18.752V18.752Z" stroke="#8F8F8F" stroke-width="2" stroke-linecap="round" stroke-linejoin="round"/>
<path d="M11.6328 7C13.2897 7 14.6328 5.65685 14.6328 4C14.6328 2.34315 13.2897 1 11.6328 1C9.97596 1 8.63281 2.34315 8.63281 4C8.63281 5.65685 9.97596 7 11.6328 7Z" stroke="#8F8F8F" stroke-width="2"/>
<path d="M3.64062 10C4.74519 10 5.64062 9.10457 5.64062 8C5.64062 6.89543 4.74519 6 3.64062 6C2.53606 6 1.64062 6.89543 1.64062 8C1.64062 9.10457 2.53606 10 3.64062 10Z" stroke="#8F8F8F" stroke-width="2"/>
<path d="M19.6406 10C20.7452 10 21.6406 9.10457 21.6406 8C21.6406 6.89543 20.7452 6 19.6406 6C18.5361 6 17.6406 6.89543 17.6406 8C17.6406 9.10457 18.5361 10 19.6406 10Z" stroke="#8F8F8F" stroke-width="2"/>
<path d="M19.6392 12.9982H19.9452C20.4187 12.9982 20.8768 13.1661 21.2381 13.472C21.5993 13.778 21.8404 14.2022 21.9182 14.6692L22.2512 16.6692C22.299 16.9558 22.2838 17.2493 22.2067 17.5294C22.1295 17.8094 21.9923 18.0693 21.8045 18.291C21.6167 18.5127 21.3829 18.6907 21.1194 18.8129C20.8558 18.935 20.5687 18.9983 20.2782 18.9982H16.6392M3.63925 12.9982H3.33325C2.85981 12.9982 2.4017 13.1661 2.04042 13.472C1.67914 13.778 1.43813 14.2022 1.36025 14.6692L1.02725 16.6692C0.979458 16.9558 0.994667 17.2493 1.07181 17.5294C1.14896 17.8094 1.2862 18.0693 1.47397 18.291C1.66175 18.5127 1.89556 18.6907 2.15914 18.8129C2.42272 18.935 2.70974 18.9983 3.00025 18.9982H6.63925L3.63925 12.9982Z" stroke="#8F8F8F" stroke-width="2" stroke-linecap="round" stroke-linejoin="round"/>
</svg>
