<svg width="19" height="20" viewBox="0 0 19 20" fill="none" xmlns="http://www.w3.org/2000/svg">
<path d="M13.4402 3.02105C13.6819 3.15829 13.9681 3.19436 14.2363 3.12139C14.5045 3.04843 14.7329 2.87235 14.8718 2.63158C14.9867 2.4288 15.1656 2.26989 15.3806 2.17977C15.5955 2.08965 15.8343 2.07342 16.0595 2.13363C16.2847 2.19383 16.4835 2.32706 16.6248 2.51243C16.7661 2.6978 16.8418 2.92482 16.8402 3.15789C16.8402 3.43707 16.7293 3.70481 16.5319 3.90222C16.3345 4.09962 16.0667 4.21053 15.7876 4.21053C15.5084 4.21053 15.2406 4.32143 15.0432 4.51883C14.8458 4.71624 14.7349 4.98398 14.7349 5.26316C14.7349 5.54233 14.8458 5.81007 15.0432 6.00748C15.2406 6.20489 15.5084 6.31579 15.7876 6.31579C16.3418 6.31543 16.8862 6.16922 17.366 5.89183C17.8459 5.61444 18.2442 5.21565 18.5211 4.73553C18.798 4.25541 18.9437 3.71087 18.9434 3.15663C18.9432 2.60239 18.7971 2.05797 18.5198 1.57807C18.2426 1.09817 17.8439 0.699703 17.3638 0.422698C16.8838 0.145693 16.3393 -8.87307e-05 15.785 4.05174e-08C15.2308 8.88117e-05 14.6863 0.146045 14.2064 0.423204C13.7264 0.700362 13.3278 1.09896 13.0507 1.57895C12.9811 1.69909 12.936 1.83181 12.9179 1.96947C12.8998 2.10713 12.9091 2.24701 12.9453 2.38106C12.9815 2.5151 13.0439 2.64065 13.1288 2.75049C13.2138 2.86033 13.3196 2.95228 13.4402 3.02105ZM17.9665 10.5263C17.6902 10.4905 17.4109 10.5656 17.19 10.7353C16.969 10.905 16.8243 11.1554 16.7876 11.4316C16.5667 13.216 15.701 14.858 14.3535 16.0484C13.006 17.2388 11.2698 17.8955 9.47178 17.8947H3.58756L4.27178 17.2105C4.46783 17.0133 4.57787 16.7465 4.57787 16.4684C4.57787 16.1903 4.46783 15.9235 4.27178 15.7263C3.24541 14.6959 2.54692 13.3848 2.26429 11.9582C1.98167 10.5315 2.12755 9.05318 2.68356 7.70929C3.23957 6.36541 4.18085 5.21613 5.38882 4.4062C6.59678 3.59627 8.01742 3.16193 9.47178 3.15789C9.75095 3.15789 10.0187 3.04699 10.2161 2.84959C10.4135 2.65218 10.5244 2.38444 10.5244 2.10526C10.5244 1.82609 10.4135 1.55835 10.2161 1.36094C10.0187 1.16353 9.75095 1.05263 9.47178 1.05263C7.69202 1.06006 5.95035 1.56867 4.4463 2.5202C2.94225 3.47174 1.73665 4.82771 0.967632 6.43276C0.198613 8.03781 -0.102726 9.82703 0.0981389 11.5954C0.299004 13.3638 0.993948 15.0399 2.10335 16.4316L0.303354 18.2C0.157293 18.348 0.05835 18.536 0.0190088 18.7402C-0.0203324 18.9444 0.00169147 19.1557 0.0823014 19.3474C0.16127 19.5396 0.295373 19.7042 0.46771 19.8203C0.640047 19.9364 0.842906 19.999 1.05072 20H9.47178C11.7786 20.0003 14.0062 19.159 15.7368 17.6338C17.4675 16.1086 18.5821 14.0043 18.8718 11.7158C18.891 11.5782 18.8828 11.4381 18.8477 11.3036C18.8125 11.1692 18.7511 11.0431 18.6669 10.9325C18.5828 10.8219 18.4775 10.7291 18.3573 10.6594C18.2371 10.5896 18.1043 10.5444 17.9665 10.5263ZM16.1876 7.4421C15.9959 7.35732 15.7833 7.33166 15.577 7.36842L15.3876 7.43158L15.1981 7.52632L15.0402 7.66316C14.9455 7.76016 14.8705 7.87453 14.8191 8C14.7569 8.1313 14.728 8.27591 14.7349 8.42105C14.7319 8.56144 14.7569 8.70102 14.8086 8.83158C14.8631 8.95791 14.9417 9.07235 15.0402 9.16842C15.1386 9.26598 15.2552 9.34316 15.3835 9.39555C15.5117 9.44793 15.649 9.47448 15.7876 9.47368C16.0667 9.47368 16.3345 9.36278 16.5319 9.16537C16.7293 8.96797 16.8402 8.70023 16.8402 8.42105C16.8438 8.28297 16.8149 8.14598 16.756 8.02105C16.6429 7.76811 16.4405 7.56574 16.1876 7.45263V7.4421Z" fill="#FED830"/>
</svg>
