<svg width="25" height="25" viewBox="0 0 25 25" fill="none" xmlns="http://www.w3.org/2000/svg">
<path d="M18.033 8.41464H6.03356C5.71531 8.41464 5.4101 8.54107 5.18507 8.7661C4.96003 8.99113 4.83361 9.29634 4.83361 9.61459C4.83361 9.93284 4.96003 10.238 5.18507 10.4631C5.4101 10.6881 5.71531 10.8145 6.03356 10.8145H18.033C18.3513 10.8145 18.6565 10.6881 18.8815 10.4631C19.1066 10.238 19.233 9.93284 19.233 9.61459C19.233 9.29634 19.1066 8.99113 18.8815 8.7661C18.6565 8.54107 18.3513 8.41464 18.033 8.41464ZM13.2332 13.2144H6.03356C5.71531 13.2144 5.4101 13.3409 5.18507 13.5659C4.96003 13.7909 4.83361 14.0961 4.83361 14.4144C4.83361 14.7326 4.96003 15.0378 5.18507 15.2629C5.4101 15.4879 5.71531 15.6143 6.03356 15.6143H13.2332C13.5515 15.6143 13.8567 15.4879 14.0817 15.2629C14.3068 15.0378 14.4332 14.7326 14.4332 14.4144C14.4332 14.0961 14.3068 13.7909 14.0817 13.5659C13.8567 13.3409 13.5515 13.2144 13.2332 13.2144ZM12.0333 0.0150146C10.4575 0.0150146 8.89714 0.32539 7.44129 0.92842C5.98545 1.53145 4.66264 2.41532 3.54839 3.52958C1.29805 5.77991 0.0338222 8.83203 0.0338222 12.0145C0.023332 14.7853 0.982731 17.4725 2.7457 19.6101L0.345808 22.01C0.179307 22.1788 0.066516 22.3931 0.0216691 22.6258C-0.0231779 22.8586 0.00192819 23.0995 0.0938194 23.318C0.193484 23.5339 0.355053 23.7153 0.558015 23.8392C0.760977 23.9631 0.996181 24.024 1.23377 24.014H12.0333C15.2157 24.014 18.2679 22.7497 20.5182 20.4994C22.7685 18.2491 24.0328 15.1969 24.0328 12.0145C24.0328 8.83203 22.7685 5.77991 20.5182 3.52958C18.2679 1.27924 15.2157 0.0150146 12.0333 0.0150146ZM12.0333 21.6141H4.12564L5.24159 20.4981C5.46508 20.2733 5.59053 19.9692 5.59053 19.6521C5.59053 19.3351 5.46508 19.031 5.24159 18.8062C3.67036 17.2367 2.69191 15.171 2.47294 12.961C2.25397 10.751 2.80803 8.53344 4.04072 6.68615C5.2734 4.83885 7.10846 3.47609 9.23323 2.83006C11.358 2.18402 13.6411 2.29468 15.6934 3.14317C17.7457 3.99167 19.4404 5.5255 20.4886 7.48335C21.5369 9.44121 21.8739 11.7019 21.4422 13.8804C21.0106 16.0589 19.8369 18.0203 18.1213 19.4304C16.4056 20.8406 14.2541 21.6123 12.0333 21.6141Z" fill="#4F4F4F"/>
</svg>
