<svg width="22" height="24" viewBox="0 0 22 24" fill="none" xmlns="http://www.w3.org/2000/svg">
<path d="M20.95 20.1041V12.2976C20.9501 11.7545 20.8392 11.2171 20.6243 10.7183C20.4094 10.2195 20.0949 9.76988 19.7001 9.3969L12.3456 2.44632C11.9752 2.09612 11.4847 1.901 10.975 1.901C10.4653 1.901 9.97485 2.09612 9.60444 2.44632L2.24987 9.3969C1.85508 9.76988 1.5406 10.2195 1.32568 10.7183C1.11077 11.2171 0.999942 11.7545 1 12.2976V20.1041C1 20.6332 1.21019 21.1406 1.58432 21.5147C1.95846 21.8889 2.46589 22.0991 2.995 22.0991H18.955C19.4841 22.0991 19.9915 21.8889 20.3657 21.5147C20.7398 21.1406 20.95 20.6332 20.95 20.1041Z" stroke="#8F8F8F" stroke-width="2" stroke-linecap="round" stroke-linejoin="round"/>
</svg>
