<svg width="23" height="21" viewBox="0 0 23 21" fill="none" xmlns="http://www.w3.org/2000/svg">
<path d="M8.86304 11.6111H13.3075C13.6022 11.6111 13.8848 11.494 14.0932 11.2857C14.3015 11.0773 14.4186 10.7947 14.4186 10.5C14.4186 10.2053 14.3015 9.9227 14.0932 9.71433C13.8848 9.50595 13.6022 9.38889 13.3075 9.38889H8.86304C8.56835 9.38889 8.28573 9.50595 8.07736 9.71433C7.86899 9.9227 7.75192 10.2053 7.75192 10.5C7.75192 10.7947 7.86899 11.0773 8.07736 11.2857C8.28573 11.494 8.56835 11.6111 8.86304 11.6111V11.6111ZM18.863 0.5H3.30748C2.52577 0.506065 1.77105 0.786681 1.17527 1.2928C0.57948 1.79891 0.180527 2.49832 0.0481475 3.26877C-0.0842316 4.03921 0.0583851 4.83168 0.451067 5.50763C0.843748 6.18359 1.46151 6.70002 2.19637 6.96667V17.1667C2.19637 18.0507 2.54756 18.8986 3.17268 19.5237C3.7978 20.1488 4.64565 20.5 5.5297 20.5H16.6408C17.5249 20.5 18.3727 20.1488 18.9978 19.5237C19.623 18.8986 19.9741 18.0507 19.9741 17.1667V6.96667C20.709 6.70002 21.3268 6.18359 21.7195 5.50763C22.1121 4.83168 22.2547 4.03921 22.1224 3.26877C21.99 2.49832 21.591 1.79891 20.9953 1.2928C20.3995 0.786681 19.6447 0.506065 18.863 0.5ZM17.7519 17.1667C17.7519 17.4614 17.6349 17.744 17.4265 17.9523C17.2181 18.1607 16.9355 18.2778 16.6408 18.2778H5.5297C5.23502 18.2778 4.9524 18.1607 4.74403 17.9523C4.53565 17.744 4.41859 17.4614 4.41859 17.1667V7.16667H17.7519V17.1667ZM18.863 4.94444H3.30748C3.01279 4.94444 2.73018 4.82738 2.52181 4.61901C2.31343 4.41063 2.19637 4.12802 2.19637 3.83333C2.19637 3.53865 2.31343 3.25603 2.52181 3.04766C2.73018 2.83929 3.01279 2.72222 3.30748 2.72222H18.863C19.1577 2.72222 19.4403 2.83929 19.6487 3.04766C19.8571 3.25603 19.9741 3.53865 19.9741 3.83333C19.9741 4.12802 19.8571 4.41063 19.6487 4.61901C19.4403 4.82738 19.1577 4.94444 18.863 4.94444Z" fill="#4F4F4F"/>
</svg>
