<svg width="24" height="23" viewBox="0 0 24 23" fill="none" xmlns="http://www.w3.org/2000/svg">
<path d="M16.3587 19.252L15.7187 14.128C15.628 13.4022 15.2753 12.7346 14.7269 12.2506C14.1785 11.7667 13.4722 11.4997 12.7407 11.5H10.5367C9.80565 11.5002 9.09981 11.7674 8.55182 12.2513C8.00382 12.7352 7.65139 13.4026 7.56073 14.128L6.91973 19.252C6.88455 19.5335 6.90967 19.8193 6.99341 20.0903C7.07715 20.3614 7.2176 20.6116 7.40544 20.8242C7.59327 21.0368 7.82419 21.207 8.08286 21.3235C8.34153 21.44 8.62203 21.5002 8.90573 21.5H14.3737C14.6574 21.5001 14.9377 21.4398 15.1963 21.3232C15.4548 21.2066 15.6856 21.0364 15.8734 20.8238C16.0611 20.6112 16.2014 20.3611 16.2851 20.0901C16.3688 19.8191 16.3939 19.5334 16.3587 19.252Z" stroke="#FED830" stroke-width="2" stroke-linecap="round" stroke-linejoin="round"/>
<path d="M11.6348 7.5C13.2916 7.5 14.6348 6.15685 14.6348 4.5C14.6348 2.84315 13.2916 1.5 11.6348 1.5C9.97791 1.5 8.63477 2.84315 8.63477 4.5C8.63477 6.15685 9.97791 7.5 11.6348 7.5Z" stroke="#FED830" stroke-width="2"/>
<path d="M3.63867 10.5C4.74324 10.5 5.63867 9.60457 5.63867 8.5C5.63867 7.39543 4.74324 6.5 3.63867 6.5C2.5341 6.5 1.63867 7.39543 1.63867 8.5C1.63867 9.60457 2.5341 10.5 3.63867 10.5Z" stroke="#FED830" stroke-width="2"/>
<path d="M19.6387 10.5C20.7432 10.5 21.6387 9.60457 21.6387 8.5C21.6387 7.39543 20.7432 6.5 19.6387 6.5C18.5341 6.5 17.6387 7.39543 17.6387 8.5C17.6387 9.60457 18.5341 10.5 19.6387 10.5Z" stroke="#FED830" stroke-width="2"/>
<path d="M19.6392 13.4982H19.9452C20.4187 13.4982 20.8768 13.6661 21.2381 13.972C21.5993 14.278 21.8404 14.7022 21.9182 15.1692L22.2512 17.1692C22.299 17.4558 22.2838 17.7493 22.2067 18.0294C22.1295 18.3094 21.9923 18.5693 21.8045 18.791C21.6167 19.0127 21.3829 19.1907 21.1194 19.3129C20.8558 19.435 20.5687 19.4983 20.2782 19.4982H16.6392M3.63925 13.4982H3.33325C2.85981 13.4982 2.4017 13.6661 2.04042 13.972C1.67914 14.278 1.43813 14.7022 1.36025 15.1692L1.02725 17.1692C0.979458 17.4558 0.994667 17.7493 1.07181 18.0294C1.14896 18.3094 1.2862 18.5693 1.47397 18.791C1.66175 19.0127 1.89556 19.1907 2.15914 19.3129C2.42272 19.435 2.70974 19.4983 3.00025 19.4982H6.63925L3.63925 13.4982Z" stroke="#FED830" stroke-width="2" stroke-linecap="round" stroke-linejoin="round"/>
</svg>
